<svg width="901" height="768" fill="none" xmlns="http://www.w3.org/2000/svg"><g clip-path="url(#a)"><path d="M572.2 748.1c-.147-.18-.473-.363-.98-.55-.253-.087-.273-.21-.06-.37.113-.087.27-.113.47-.08-.747.22-1.257.07-1.53-.45-.18-.347-.157-.77.07-1.27.69-1.5 1.92-2.69 2.56-3.96 1.987-3.967 2.11-7.457.37-10.47 21.7-7.067 43.053-15.737 64.06-26.01 23.14-11.32 46.8-27.23 62.5-47.51 7.72-9.973 12.79-21.537 15.21-34.69 1.033-5.66 2.013-11.32 2.94-16.98.107-.667-.053-1.953-.48-3.86.453-.673 1.4-.493 2.84.54.933.673 1.723 1.15 2.37 1.43 7.407 3.167 15.057 5.58 22.95 7.24 9.79 2.06 23.08 1.69 32.82.95 7.52-.57 16.65-2.83 23.63-5.22 23.94-8.19 43.78-21.42 59.44-41.98 8.09-10.64 13.79-18.92 17.95-30.49 3.99-11.06 6.36-17.42 6.58-27.47 2.15-7.48.27-11.14-5.62-15.44-4.907-3.58-10.057-6.773-15.45-9.58-12.93-6.72-26.41-13.01-38.98-19.76-5.613-3.02-11.233-6.023-16.86-9.01-2.48-1.31-6.09-2.77-8.97-4.53-.807-.487-1.683-.967-2.63-1.44-3.39-1.68-6.36-3.74-9.7-5.43-5.97-3.04-11.14-6.4-17.62-9.81-4.627-2.433-10.41-6.143-17.35-11.13-.7-.507-1.333-1.33-1.9-2.47.053-.773-.02-1.517-.22-2.23-1.28-4.513-.733-7.343 1.64-8.49l28.3 16.39c.089.05.189.076.291.077.102.001.203-.024.292-.072.089-.048.164-.117.218-.202.053-.085.084-.183.089-.283.77-16.92-.85-29.98-4.5-49.19-.487-2.573-1.84-5.843-4.06-9.81-1.71-3.06-2.45-5.59.25-8.08.967-.893 2.01-1.093 3.13-.6 5.58 2.49 11.98 3.32 17.75 2.16 2.28-.46 7.1-2.32 7.9-4.84 1.12-3.52-4.31-12.56-6.57-16.02-14.78-22.607-27.073-40.393-36.88-53.36-17.63-23.29-36.34-46.11-57.03-66.77-8.49-8.48-16.9-15.38-26.4-22.02-.747-.52-1.5-.967-2.26-1.34-.141-.069-.295-.107-.452-.11-.157-.003-.312.027-.456.09-.144.063-.272.156-.376.274-.104.117-.181.256-.226.406-1.58 5.36-3.24 13.25-10.96 11.14-2.333-.64-3.713-2.533-4.14-5.68.893-4.307 1.737-9.22 2.53-14.74.567-3.933.7-7.853.4-11.76 1.92-5.41 2.24-10.81 2.92-16.44 2.26-13.26 4.07-29.98 5.36-39.95 1.307-10.093 2.433-20.21 3.38-30.35.08-.88-.153-2.2067-.7-3.98 1.04-3.2 1.39-6.5467 1.05-10.04 1.593-13.3 1.787-26.5167.58-39.65-.77-8.49-5.22-18.91-15.67-18.2-9.073.62-18.033 2.8167-26.88 6.59-5.51 2.35-11.06 4.46-16.18 7.62l-7.97 4.99c-13.227 8.7333-24.9 19.44-35.02 32.12-9.86 12.36-16.23 24.63-22.71 39.6l-3.01 8.16c-2.547 4.5-4.123 7.843-4.73 10.03-2.56 9.15-5.74 18.26-7.58 27.57-.513 2.58-1.637 4.673-3.37 6.28-5.37-.86-9.94-2.36-8.92-8.58.84-5.113 1.907-10.03 3.2-14.75.13-.463.145-.95.044-1.421-.101-.47-.315-.909-.624-1.279-1.407-1.693-3.313-2.867-5.72-3.52-9.3-2.527-18.617-5.01-27.95-7.45-6.78-1.78-13.68-2.91-20.6-4.19-6.233-1.153-11.417-1.97-15.55-2.45-35.78-4.12-73.69-2.99-108.67 5.84-8.993 2.273-14.95 3.887-17.87 4.84-12.08 3.94-23.79 8.59-35.69 13.01-7.993 2.967-14.343 4.963-19.05 5.99-22.2 4.84-43.02 1.69-66.36-2.43-3.95-.7-15.62-1.98-18.36.73-1.85 1.83-2.69 4.19-2.54 6.96.98 18.6 7.69 35.84 17.07 52.63 4.133 7.407 8.83 13.627 14.09 18.66 1.21 1.15 3.16 2.05 4.42 3.6 2.45 3.03 1.11 6.14-2.78 6.75-1.353-.307-2.733-.54-4.14-.7-1.433-.153-2.71-.583-3.83-1.29-3.02-1.92-6.03-3.34-8.51-5.95-3.09-3.27-5.87-6.71-9.13-9.84-.038-.038-.085-.068-.135-.086-.051-.019-.105-.027-.159-.023-.054.004-.107.019-.154.045-.048.025-.089.061-.122.104l-12.05 15.36c-10.16 13.31-21.03 26.9-32.82 38.72-1.96 1.97-3.53 4.2-5.62 5.99-1.513 1.3-2.483 2.22-2.91 2.76-1.06 1.34-3.317 3.503-6.77 6.49-8.427 7.287-14.983 12.557-19.67 15.81-8.627 5.98-17.96 10.687-28 14.12-.2018.071-.3733.201-.49.37-.72 1.06-.6333 1.667.26 1.82.8533 1.053 1.71 2.097 2.57 3.13 2.85 3.44 7.79 6.43 11.46 9.03 5.03 3.55 11.31 6.69 16.88 10.26 1.173.753 3.013 1.52 5.52 2.3 4.41 1.36 7.86 3.49 11.76 5.56.913.92 1.207 1.92.88 3-3.967 13.1-6.983 24.847-9.05 35.24-2.573 12.967-3.923 28.133-4.05 45.5-.07 10.04 1.05 22.22 6.48 31.18 2.07 4.13-5.65 6.56-8.14 6.47-9.02-6.82-10.25-14.2-12.22-24.96-.013-.072-.042-.14-.085-.199-.044-.058-.101-.106-.166-.14-.066-.034-.138-.052-.213-.054-.074-.002-.148.013-.216.043l-19.53 9.34c-12.7933 5.007-25.92 10.923-39.38 17.75-3.17 1.6-5.93 3.73-8.72 5.22-6.2333 3.307-12.2167 7.66-17.95 13.06-3.2933 4.293-4.8033 9.803-4.53 16.53.17 4.22 1.63 9.24 2.46 13.85-.22 1.647.0067 3.283.68 4.91.08.193.07.427-.03.7-.1067.307-.13.62-.07.94.6667 3.687 1.6867 7.27 3.06 10.75 6.43 16.27 15.74 30.14 27.25 43.01 12.15 13.58 27.91 26.18 45.34 32.5 14.18 5.15 29.07 6.85 44.1 5.31-1.113.9-1.187 2.337-.22 4.31.015.033.038.061.067.08.028.02.06.03.093.03h.27c.107 0 .18.047.22.14 1.11 2.61 2.82 3.77 2.59 7.24-6.46-.02-12.78 1.43-20.34.69-37.0267-3.633-66.6033-20.2-88.73-49.7C13.51 554.61.450002 527.04.700002 498.75c.1-10.56 3.880008-19.16 12.059998-25.96 15.67-13 35.5-21.67 55.73-30.08 4.7867-1.987 15.5533-6.86 32.3-14.62 3.23-1.49 4.1-2.96 4.27-6.65.84-18.4 3.543-36.503 8.11-54.31 1.48-5.74 4.04-12.88 5.8-19.4.03-.111.037-.227.022-.341-.016-.114-.055-.224-.113-.322-.059-.098-.137-.183-.23-.249-.093-.067-.198-.114-.309-.138-8.16-1.87-16.09-4.2-23.56-8.4-7.77-4.38-15.55-8.56-21.97-14.84-8.16-7.97-11.21-17.86 1.88-22.94 4.88-1.9 10.11-3.76 14.57-5.99 37.46-18.76 60.77-52.11 88.03-82.19 2.27-2.5 5.42-5.43 7.85-8.28.241-.283.396-.63.446-.999.049-.369-.008-.744-.166-1.081-4.4-9.24-8.07-16.5-11.39-27.91-2.873-9.88-4.317-18.813-4.33-26.8-.007-5.293 1.353-9.877 4.08-13.75 4.32-6.15 16.57-6.55 23.16-5.75 1.14.133 1.753-.37 1.84-1.51 2.19-29.32 8.9-59.01 17.98-86.92 3.66-11.25 9.92-27.23 22.1-31.98001 2.76-1.08 6.267-1.58334 10.52-1.51 13.887.22666 25.927 4.86671 36.12 13.92001 9.847 8.74 18.457 19.16 25.83 31.26 10.35 16.97 19.06 35.33 25.78 54.04.353.987.593 1.94.72 2.86.009.073.034.144.072.207.038.063.09.117.151.16.061.042.131.071.204.086.074.014.15.013.223-.003 13.98-3 28.42-6.2 42.23-7.34 20.28-1.68 39.05-.96 60.79.27 9.113.513 17.52 1.403 25.22 2.67 19.007 3.133 37.687 7.617 56.04 13.45 1.473.473 2.72.973 3.74 1.5.152.078.319.124.489.132.171.009.342-.019.501-.081.159-.063.302-.158.422-.281.119-.123.21-.269.268-.43 3.267-9.187 6.807-18.1 10.62-26.74 1.987-4.5067 6.027-11.7833 12.12-21.83 6.427-10.5933 14.61-20.9133 24.55-30.96 17.487-17.6667 38.243-29.82001 62.27-36.46001 15.17-4.19 36.08-2.830006 43.5 13.00001 5.62 12 5.79 28.49 4.62 42.01-1.52 17.72-2.61 35.48-3.68 53.23-.193 3.16-.773 7.713-1.74 13.66-.77 4.78-3 9.31-3.38 14.16-1.07 13.86-2.86 27.67-4.53 41.79-.12 1 .247 1.77 1.1 2.31 10.25 6.52 20.02 12.63 29.7 21.26 15.267 13.607 29.44 28.263 42.52 43.97 21.287 25.547 41.007 52.253 59.16 80.12 4.567 7.013 7.89 13.193 9.97 18.54 2.22 5.71-1.23 12.09-4.68 16.42-4.59 5.76-13.74 8.05-20.77 8.83-.168.019-.329.075-.473.163-.144.089-.267.208-.359.349-.093.142-.153.302-.177.469-.024.167-.011.338.039.499 3.953 13.073 6.217 26.427 6.79 40.06.22 5.29-.12 12.08-.09 18.14 0 .153.045.302.128.43.084.127.202.228.342.29 9.87 4.44 21 10.35 29.05 14.28 17.42 8.5 34.65 17.367 51.69 26.6 6.14 3.33 11.28 6.22 16.05 10.56 11.6 10.56 8.52 29.61 3.86 42.54-2.107 5.853-4.227 11.707-6.36 17.56-1.91 5.23-4.99 9.4-7.55 14.43-1.95 3.84-5.03 6.66-7.03 10.08-1.37 2.32-2.61 4.46-4.33 6.6-4.67 5.83-9.04 12.11-14.69 17.19-19.84 17.82-43.49 28.7-69.67 33.29-5.027.88-10.11 1.373-15.25 1.48-6.02.13-12.31.51-17.98-.06-7.013-.7-14.017-2.087-21.01-4.16-.192-.057-.395-.071-.594-.039-.198.031-.387.107-.552.221-.165.114-.302.264-.402.439-.099.174-.158.369-.172.569-.347 5.36-1.803 10.583-4.37 15.67-2.327 4.613-3.803 8.133-4.43 10.56-.147.567-.71 1.663-1.69 3.29-3.76 6.3-7.29 13.2-11.38 18.7-5.367 7.213-11.123 13.423-17.27 18.63-23.56 19.95-52.24 33.47-81.67 44.77-13.093 5.02-25.687 9.333-37.78 12.94ZM223.87 61.78l-2.68 10.7c-1.213 3.7467-1.937 6.17-2.17 7.27-3.493 16.2667-6.09 32.847-7.79 49.74-.073.72.247 1.13.96 1.23 4.253.593 8.693 1.223 13.32 1.89 14.547 2.107 29.043 1.83 43.49-.83 10.15-1.87 21.01-6.64 30.53-10.61 7.907-3.293 15.68-6.067 23.32-8.32 1.147-.333 1.573-1.08 1.28-2.24-.84-3.34-1.817-6.42-2.93-9.24-6.347-16.0467-13.92-31.4867-22.72-46.32-4.34-7.3-10.28-13.59-15.68-20.1-8.86-10.71-20.7-17.33-34.82-16.27-8.85.66-13.39 8.9-16.23 16.59-3.307 8.92-5.933 17.7567-7.88 26.51Z" fill="#BA3745"/><path d="M671.1 72.48c-1.107-2.8533-2.093-4.8967-2.96-6.13-13.79-19.55-32.56-31.01-55.19-37.51 5.12-3.16 10.67-5.27 16.18-7.62 8.847-3.7733 17.807-5.97 26.88-6.59 10.45-.71 14.9 9.71 15.67 18.2 1.207 13.1333 1.013 26.35-.58 39.65Z" fill="#FFAA3C"/><path d="M221.19 72.48c8.12-6 17.06-10.01 26.56-14.19 8.1-3.56 17.66-6.4 26.49-9.73 3.03-1.14 6.82-1.74 10.19-3.22.213-.0949.394-.2511.519-.4487.124-.1976.187-.4277.181-.6613-.013-.2533-.187-.48-.52-.68-.207-.1266-.463-.19-.77-.19-2.43-.01-4.8.48-7.13.46-8.567-.0533-16.963 1.6667-25.19 5.16-10.4 4.4-19.617 8.6667-27.65 12.8 1.947-8.7533 4.573-17.59 7.88-26.51 2.84-7.69 7.38-15.93 16.23-16.59 14.12-1.06 25.96 5.56 34.82 16.27 5.4 6.51 11.34 12.8 15.68 20.1 8.8 14.8334 16.373 30.2734 22.72 46.32 1.113 2.82 2.09 5.9 2.93 9.24.293 1.16-.133 1.907-1.28 2.24-7.64 2.253-15.413 5.027-23.32 8.32-9.52 3.97-20.38 8.74-30.53 10.61-14.447 2.66-28.943 2.937-43.49.83-4.627-.667-9.067-1.297-13.32-1.89-.713-.1-1.033-.51-.96-1.23 1.7-16.893 4.297-33.4733 7.79-49.74.233-1.1.957-3.5233 2.17-7.27Zm57.24 24.72c-7.02-2.02-18.37 1.76-25.02 4.66-4.67 2.04-9.33 5.11-13.74 8.05-3.853 2.567-6.927 5.64-9.22 9.22-.297.464-.427 1.016-.367 1.563.06.548.306 1.059.697 1.447 3.59 3.57 9.07 2.71 12.99-.07 10.33-7.35 20.2-11.52 32.72-16.98 2.35-1.02 3.89-2.62 5.56-4.41.194-.208.306-.479.317-.7638.011-.2844-.08-.5633-.257-.7862-1.26-1.58-2-1.45-3.68-1.93Z" fill="#FF9C3A"/><path d="M612.95 28.84c22.63 6.5 41.4 17.96 55.19 37.51.867 1.2334 1.853 3.2767 2.96 6.13.34 3.4934-.01 6.84-1.05 10.04-2.56-3.71-4.43-7.96-6.87-11.23-3.07-4.1-6.18-8.37-9.83-11.79-13.22-12.42-30.29-22.45-48.37-25.67l7.97-4.99Z" fill="#EC7341"/><path d="M604.98 33.83c18.08 3.22 35.15 13.25 48.37 25.67 3.65 3.42 6.76 7.69 9.83 11.79 2.44 3.27 4.31 7.52 6.87 11.23.547 1.7733.78 3.1.7 3.98-.947 10.14-2.073 20.257-3.38 30.35-1.29 9.97-3.1 26.69-5.36 39.95-.313.427-.763.47-1.35.13-.287-.167-.57-.457-.85-.87-5.747-8.587-11.623-16-17.63-22.24-22.84-23.77-56.3-30.5-88.17-28.85-2.127.113-4.38.307-6.76.58 6.48-14.97 12.85-27.24 22.71-39.6 10.12-12.68 21.793-23.3866 35.02-32.12Z" fill="#FFAA3C"/><path d="m221.19 72.48 2.68-10.7c8.033-4.1333 17.25-8.4 27.65-12.8 8.227-3.4933 16.623-5.2133 25.19-5.16 2.33.02 4.7-.47 7.13-.46.307 0 .563.0634.77.19.333.2.507.4267.52.68.006.2335-.057.4637-.181.6613-.125.1976-.306.3538-.519.4487-3.37 1.48-7.16 2.08-10.19 3.22-8.83 3.33-18.39 6.17-26.49 9.73-9.5 4.18-18.44 8.19-26.56 14.19Zm57.24 24.72c1.68.48 2.42.35 3.68 1.93.177.2228.268.5017.257.7861-.011.2839-.123.5549-.317.7639-1.67 1.79-3.21 3.39-5.56 4.41-12.52 5.46-22.39 9.63-32.72 16.98-3.92 2.78-9.4 3.64-12.99.07-.391-.388-.637-.899-.697-1.447-.06-.547.07-1.099.367-1.563 2.293-3.58 5.367-6.653 9.22-9.22 4.41-2.94 9.07-6.01 13.74-8.05 6.65-2.9 18-6.68 25.02-4.66Zm383.58 59.6c-.68 5.63-1 11.03-2.92 16.44-8.59-13.22-15.22-25.19-27.79-36.79-4.16-3.84-9.437-7.61-15.83-11.31-10.97-6.35-24.29-11.28-36.37-12.77-9.92-1.213-21.54-.767-34.86 1.34l3.01-8.16c2.38-.273 4.633-.467 6.76-.58 31.87-1.65 65.33 5.08 88.17 28.85 6.007 6.24 11.883 13.653 17.63 22.24.28.413.563.703.85.87.587.34 1.037.297 1.35-.13Z" fill="#EC7341"/><path d="M528.56 157.59c1.613 3.287 4.343 5.427 8.19 6.42 12.413 3.213 21.057 5.633 25.93 7.26 2.613.873 5.233 1.727 7.86 2.56 17.55 5.56 35.1 15.79 49.87 26.67 2.22 1.64 5.24 4.91 7.38 5.98 3.707 1.86 7.123 1.887 10.25.08 6.46-3.733 12.5-6.007 18.12-6.82.427 3.147 1.807 5.04 4.14 5.68 7.72 2.11 9.38-5.78 10.96-11.14.045-.15.122-.289.226-.406.104-.118.232-.211.376-.274.144-.063.299-.093.456-.09.157.003.311.041.452.11.76.373 1.513.82 2.26 1.34 9.5 6.64 17.91 13.54 26.4 22.02 20.69 20.66 39.4 43.48 57.03 66.77 9.807 12.967 22.1 30.753 36.88 53.36 2.26 3.46 7.69 12.5 6.57 16.02-.8 2.52-5.62 4.38-7.9 4.84-5.77 1.16-12.17.33-17.75-2.16-1.12-.493-2.163-.293-3.13.6-2.7 2.49-1.96 5.02-.25 8.08 2.22 3.967 3.573 7.237 4.06 9.81 3.65 19.21 5.27 32.27 4.5 49.19-.005.1-.036.198-.089.283-.054.084-.129.154-.218.202-.089.048-.19.073-.292.072-.102-.001-.202-.027-.291-.077l-28.3-16.39c-.5-3.8-.303-7.553.59-11.26.098-.4.294-.768.57-1.074.275-.305.623-.538 1.01-.676l3.59-1.25c.413-.145.78-.397 1.063-.729.283-.332.471-.733.547-1.161 1.08-5.92-4.78-12.26-9-15.54-2.17-1.69-4.67-2.37-6.92-.65-3.46 2.64-.92 9.07.01 12.26.353 1.207.277 3.383-.23 6.53-2.367 14.68-8.383 27.46-18.05 38.34-4.31 4.84-11.22 10.23-16.53 15.81-7.167 4.153-14.637 5.17-22.41 3.05-15.83-4.32-29.9-15.15-41.19-27.06-13.107-13.84-24.033-29.223-32.78-46.15-2.4-4.64-4.953-9.09-7.66-13.35-.175-.277-.279-.593-.301-.921-.023-.328.036-.658.171-.959 2.21-4.86 9.5-26.55-1.77-26.15-2.01.07-4.5.28-5.39 2.12-3 6.12-4.97 14.14-7.9 20.16-4.34 8.92-9.497 17.357-15.47 25.31-1.86 2.473-3.68 4.973-5.46 7.5-1.393 1.98-4.483 4.893-9.27 8.74-4.5-3.74-9.447-6.927-14.84-9.56-.567-1.533-1.167-3.177-1.8-4.93-1.64-4.56-2.24-9.58-3.46-14.32-.94-3.63.03-6.73-2.83-10.18-4.01-4.84-9.04 1.6-9.14 6.02-.073 3.647.173 7.8.74 12.46-6.193 7.307-12.857 13.787-19.99 19.44-12.74 10.1-28.13 17.45-44.65 20.38-5.3.947-10.053.843-14.26-.31-.92-4.86 0-8 1.18-12.93 3.21-3.51 6.15-7.71 8.96-10.91 11.99-13.62 23.31-27.56 34.07-42.19 2.333-3.18 4.25-6.59 5.75-10.23 1.29-3.12-.48-8.37-4.59-7.37-5.94 1.44-7.83 6.78-10.84 11.3-6.23 9.38-15.05 17.47-24.4 23.66-3.74 2.48-8.6 4.66-12.87 6.99-9.5 5.18-20.26 9.11-30.46 12.71-21.2 7.49-42.44 14.94-64.1 20.98-15.27 4.26-31.01 7.32-46.71 10.13-7.26 1.31-16.21 3.99-25.2 4.16-10.74.26-20.41-.18-22.65-13.04-2.66-15.28-2.12-29.53-.53-44.87.64-6.14 1.87-12.87 2.7-19.35.453-3.507-.967-5.553-4.26-6.14-3.08-.54-6.39 4.39-7.07 6.86-2.333 8.487-4.083 17.09-5.25 25.81-.37 2.79-1.31 5.26-2.85 7.32-5.613 7.54-12.667 16.247-21.16 26.12-14.51 16.89-30.43 33.25-49.79 45.3-.28.173-.587.27-.92.29l-2.54.15c-2.87.3-7.36 1.73-8.8 4.52-.373.673-.763 1.093-1.17 1.26-7.053 2.86-12.973 4.543-17.76 5.05-4.693.493-9.053-1.38-13.08-5.62-5.43-8.96-6.55-21.14-6.48-31.18.127-17.367 1.477-32.533 4.05-45.5 2.067-10.393 5.083-22.14 9.05-35.24.327-1.08.033-2.08-.88-3 2.353.06 4.64.13 6.86.21 6.287.213 12.097-1.31 17.43-4.57 8.95-5.46 4.08-13.1-4.65-12.56-11.05.69-23.46.9-34.27-1.74-7.4-1.807-14.667-4.057-21.8-6.75-.6667-.253-2.5667-1.177-5.7-2.77-1.9267-.987-3.9467-1.687-6.06-2.1-.8933-.153-.98-.76-.26-1.82.1167-.169.2882-.299.49-.37 10.04-3.433 19.373-8.14 28-14.12 4.687-3.253 11.243-8.523 19.67-15.81 3.453-2.987 5.71-5.15 6.77-6.49.427-.54 1.397-1.46 2.91-2.76 2.09-1.79 3.66-4.02 5.62-5.99 11.79-11.82 22.66-25.41 32.82-38.72 7.92 4.35 16.97 4.36 26.25 3.86 2.57-.14 5.62-1.25 8.09-1.19 1.773.047 3.07-.05 3.89-.29 3.89-.61 5.23-3.72 2.78-6.75-1.26-1.55-3.21-2.45-4.42-3.6-5.26-5.033-9.957-11.253-14.09-18.66-9.38-16.79-16.09-34.03-17.07-52.63-.15-2.77.69-5.13 2.54-6.96 2.74-2.71 14.41-1.43 18.36-.73 23.34 4.12 44.16 7.27 66.36 2.43 4.707-1.027 11.057-3.023 19.05-5.99 11.9-4.42 23.61-9.07 35.69-13.01 2.92-.953 8.877-2.567 17.87-4.84 34.98-8.83 72.89-9.96 108.67-5.84 4.133.48 9.317 1.297 15.55 2.45 6.92 1.28 13.82 2.41 20.6 4.19 9.333 2.44 18.65 4.923 27.95 7.45 2.407.653 4.313 1.827 5.72 3.52.309.37.523.809.624 1.279.101.471.086.958-.044 1.421-1.293 4.72-2.36 9.637-3.2 14.75-1.02 6.22 3.55 7.72 8.92 8.58Z" fill="#FFE031"/><path d="M659.09 173.24c.3 3.907.167 7.827-.4 11.76-.793 5.52-1.637 10.433-2.53 14.74-5.62.813-11.66 3.087-18.12 6.82-3.127 1.807-6.543 1.78-10.25-.08-2.14-1.07-5.16-4.34-7.38-5.98-14.77-10.88-32.32-21.11-49.87-26.67-2.627-.833-5.247-1.687-7.86-2.56-4.873-1.627-13.517-4.047-25.93-7.26-3.847-.993-6.577-3.133-8.19-6.42 1.733-1.607 2.857-3.7 3.37-6.28 1.84-9.31 5.02-18.42 7.58-27.57.607-2.187 2.183-5.53 4.73-10.03 13.32-2.107 24.94-2.553 34.86-1.34 12.08 1.49 25.4 6.42 36.37 12.77 6.393 3.7 11.67 7.47 15.83 11.31 12.57 11.6 19.2 23.57 27.79 36.79Z" fill="#FFAA3C"/><path d="M216.7 230.53c-.82.24-2.117.337-3.89.29-2.47-.06-5.52 1.05-8.09 1.19-9.28.5-18.33.49-26.25-3.86l12.05-15.36c.033-.043.074-.079.122-.104.047-.026.1-.041.154-.045.054-.004.108.004.159.023.05.019.097.048.135.086 3.26 3.13 6.04 6.57 9.13 9.84 2.48 2.61 5.49 4.03 8.51 5.95 1.12.707 2.397 1.137 3.83 1.29 1.407.16 2.787.393 4.14.7Zm-134.25 83.7c2.1133.413 4.1333 1.113 6.06 2.1 3.1333 1.593 5.0334 2.517 5.7 2.77 7.133 2.693 14.4 4.943 21.8 6.75 10.81 2.64 23.22 2.43 34.27 1.74 8.73-.54 13.6 7.1 4.65 12.56-5.333 3.26-11.143 4.783-17.43 4.57-2.22-.08-4.507-.15-6.86-.21-3.9-2.07-7.35-4.2-11.76-5.56-2.507-.78-4.347-1.547-5.52-2.3-5.57-3.57-11.85-6.71-16.88-10.26-3.67-2.6-8.61-5.59-11.46-9.03-.86-1.033-1.7167-2.077-2.57-3.13Zm367.97 92.31c.13-2.74.74-5.45.75-8.07.033-3.827.163-7.65.39-11.47.093-1.6-.677-2.483-2.31-2.65-3.27-.35-4.98.02-7.89 1.84-8.33 5.21-17.32 9.02-26.16 13.41-4.6 2.28-9.37 3.94-14.15 5.91-4.507 1.86-8.083 3.24-10.73 4.14-23.227 7.913-46.59 13.23-70.09 15.95-12.767 1.48-26.167 1.537-40.2.17 8.99-.17 17.94-2.85 25.2-4.16 15.7-2.81 31.44-5.87 46.71-10.13 21.66-6.04 42.9-13.49 64.1-20.98 10.2-3.6 20.96-7.53 30.46-12.71 4.27-2.33 9.13-4.51 12.87-6.99 9.35-6.19 18.17-14.28 24.4-23.66 3.01-4.52 4.9-9.86 10.84-11.3 4.11-1 5.88 4.25 4.59 7.37-1.5 3.64-3.417 7.05-5.75 10.23-10.76 14.63-22.08 28.57-34.07 42.19-2.81 3.2-5.75 7.4-8.96 10.91Z" fill="#FF9C3A"/><path d="M708.9 448.18c2.8 1.373 4.167 3.303 4.1 5.79-.04 1.4-.83 3.16-2.37 5.28-1.16 1.6-2.32 3.19-3.48 4.77l-10.62 2.25c-3.18-.21-6.16-.42-9.32-1.19-4.29-1.05-8.92-1.93-12.74-3.64-10.17-4.56-20.02-11.41-27.98-19.18-11.23-10.96-21.93-22.77-30.3-36.09-5.66-9.013-10.777-18.34-15.35-27.98-.673-1.42-1.24-2.777-1.7-4.07-.039-.106-.108-.198-.198-.266-.091-.068-.199-.109-.311-.118-.113-.008-.226.016-.325.07-.1.054-.181.135-.236.234-7.45 13.73-18.35 27.34-31.4 35.78-6.28 4.05-10.12 5.37-18.18 6.61-6.867-2.34-11.787-7.647-14.76-15.92-2.22-6.167-3.753-11.143-4.6-14.93l-.99-5.62c-.567-4.66-.813-8.813-.74-12.46.1-4.42 5.13-10.86 9.14-6.02 2.86 3.45 1.89 6.55 2.83 10.18 1.22 4.74 1.82 9.76 3.46 14.32.633 1.753 1.233 3.397 1.8 4.93.56 2.84 1.583 5.457 3.07 7.85 2.69 4.34 7.95 5.46 11.77 1.71 4.787-3.847 7.877-6.76 9.27-8.74 1.78-2.527 3.6-5.027 5.46-7.5 5.973-7.953 11.13-16.39 15.47-25.31 2.93-6.02 4.9-14.04 7.9-20.16.89-1.84 3.38-2.05 5.39-2.12 11.27-.4 3.98 21.29 1.77 26.15-.135.301-.194.631-.171.959.022.328.126.644.301.921 2.707 4.26 5.26 8.71 7.66 13.35 8.747 16.927 19.673 32.31 32.78 46.15 11.29 11.91 25.36 22.74 41.19 27.06 7.773 2.12 15.243 1.103 22.41-3.05Zm-428.87-22.41c14.033 1.367 27.433 1.31 40.2-.17 23.5-2.72 46.863-8.037 70.09-15.95 2.647-.9 6.223-2.28 10.73-4.14 4.78-1.97 9.55-3.63 14.15-5.91 8.84-4.39 17.83-8.2 26.16-13.41 2.91-1.82 4.62-2.19 7.89-1.84 1.633.167 2.403 1.05 2.31 2.65-.227 3.82-.357 7.643-.39 11.47-.01 2.62-.62 5.33-.75 8.07-1.18 4.93-2.1 8.07-1.18 12.93-.067 1.887-.907 3.813-2.52 5.78-2.07 2.52-6.91 1.84-9.37.77l-2.11-4.04c-.54-4.92-.24-10.053.9-15.4.34-1.62.49-3.463.45-5.53-.007-.413-.19-.52-.55-.32-4.833 2.687-9.67 5.363-14.51 8.03-18.32 10.09-34.96 15.77-58.82 21.9-6.127 1.573-17.55 3.63-34.27 6.17-18.593 2.833-38.817 2.997-60.67.49-3.307-.447-6.62-1.327-9.94-2.64-6.76-2.67-9.68-5.39-12.25-12.5l-3.84-24.01c-.147-.907-.46-.97-.94-.19-.593.947-1.347 1.977-2.26 3.09-7.48 9.167-15.487 17.84-24.02 26.02-2.47 2.37-5.49 5.19-7.98 7.18-2.87 2.29-5.55 4.83-8.49 6.84-3.127 2.14-6.283 4.243-9.47 6.31-4.78 3.11-9.98 5.13-15.21 7.44-1.96.867-3.73 1.143-5.31.83-.233-1.013-1.017-1.503-2.35-1.47l2.54-.15c.333-.02.64-.117.92-.29 19.36-12.05 35.28-28.41 49.79-45.3 8.493-9.873 15.547-18.58 21.16-26.12 1.54-2.06 2.48-4.53 2.85-7.32 1.167-8.72 2.917-17.323 5.25-25.81.68-2.47 3.99-7.4 7.07-6.86 3.293.587 4.713 2.633 4.26 6.14-.83 6.48-2.06 13.21-2.7 19.35-1.59 15.34-2.13 29.59.53 44.87 2.24 12.86 11.91 13.3 22.65 13.04Z" fill="#BA3745"/><path d="M696.53 466.27c-1.8.53-3.71.31-5.36.85-1.53.5-2.6.92-4.2 1.06-8.16.71-14.18-2.17-21.54-4.9-2.847-1.053-5.31-2.157-7.39-3.31-23.613-13.127-41.633-31.807-54.06-56.04-.533-1.053-1.017-2.093-1.45-3.12-.101-.243-.273-.451-.492-.597-.22-.146-.478-.223-.741-.222-.264.001-.521.08-.74.228-.218.148-.388.357-.487.601-.7 1.68-1.63 3.337-2.79 4.97-6.033 8.453-13.263 15.713-21.69 21.78-4.43 3.18-12.07 7.2-17.65 6.46-6.01-.79-8.9-7.1-9-12.78-.04-2.4-.19-4.007-.45-4.82 8.06-1.24 11.9-2.56 18.18-6.61 13.05-8.44 23.95-22.05 31.4-35.78.055-.099.136-.18.236-.234.099-.054.212-.078.325-.07.112.009.22.05.311.118.09.068.159.16.198.266.46 1.293 1.027 2.65 1.7 4.07 4.573 9.64 9.69 18.967 15.35 27.98 8.37 13.32 19.07 25.13 30.3 36.09 7.96 7.77 17.81 14.62 27.98 19.18 3.82 1.71 8.45 2.59 12.74 3.64 3.16.77 6.14.98 9.32 1.19Zm55.72-58.69c-2.373 1.147-2.92 3.977-1.64 8.49.2.713.273 1.457.22 2.23l-.35.02c-.227.007-.38.12-.46.34-7.48 19.85-22.63 38.58-42.87 45.36 1.16-1.58 2.32-3.17 3.48-4.77 1.54-2.12 2.33-3.88 2.37-5.28.067-2.487-1.3-4.417-4.1-5.79 5.31-5.58 12.22-10.97 16.53-15.81 9.667-10.88 15.683-23.66 18.05-38.34.507-3.147.583-5.323.23-6.53-.93-3.19-3.47-9.62-.01-12.26 2.25-1.72 4.75-1.04 6.92.65 4.22 3.28 10.08 9.62 9 15.54-.076.428-.264.829-.547 1.161-.283.332-.65.584-1.063.729l-3.59 1.25c-.387.138-.735.371-1.01.676-.276.306-.472.674-.57 1.074-.893 3.707-1.09 7.46-.59 11.26Zm-224.11-27.62.99 5.62c-.567.407-1.053 1.133-1.46 2.18-.38.987-.77 1.747-1.17 2.28-8.68 11.65-20.48 23.21-32.46 31.44-10.64 7.3-23.08 14.67-35.8 17.49-4.633 1.027-9.387.71-14.26-.95-5.513-1.88-7.723-5.88-6.63-12 2.46 1.07 7.3 1.75 9.37-.77 1.613-1.967 2.453-3.893 2.52-5.78 4.207 1.153 8.96 1.257 14.26.31 16.52-2.93 31.91-10.28 44.65-20.38 7.133-5.653 13.797-12.133 19.99-19.44Z" fill="#FF9C3A"/><path d="M529.13 385.58c.847 3.787 2.38 8.763 4.6 14.93 2.973 8.273 7.893 13.58 14.76 15.92.26.813.41 2.42.45 4.82.1 5.68 2.99 11.99 9 12.78 5.58.74 13.22-3.28 17.65-6.46 8.427-6.067 15.657-13.327 21.69-21.78 1.16-1.633 2.09-3.29 2.79-4.97.099-.244.269-.453.487-.601.219-.148.476-.227.74-.228.263-.001.521.076.741.222.219.146.391.354.492.597.433 1.027.917 2.067 1.45 3.12 12.427 24.233 30.447 42.913 54.06 56.04 2.08 1.153 4.543 2.257 7.39 3.31 7.36 2.73 13.38 5.61 21.54 4.9 1.6-.14 2.67-.56 4.2-1.06 1.65-.54 3.56-.32 5.36-.85l10.62-2.25c20.24-6.78 35.39-25.51 42.87-45.36.08-.22.233-.333.46-.34l.35-.02c.567 1.14 1.2 1.963 1.9 2.47 6.94 4.987 12.723 8.697 17.35 11.13 6.48 3.41 11.65 6.77 17.62 9.81 3.34 1.69 6.31 3.75 9.7 5.43.947.473 1.823.953 2.63 1.44 2.88 1.76 6.49 3.22 8.97 4.53 5.627 2.987 11.247 5.99 16.86 9.01 12.57 6.75 26.05 13.04 38.98 19.76 5.393 2.807 10.543 6 15.45 9.58 5.89 4.3 7.77 7.96 5.62 15.44-.567 1.92-1.873 4.783-3.92 8.59-2.86 5.327-5.877 10.56-9.05 15.7-2.687 4.353-5.807 8.433-9.36 12.24-1.5-5.53-4.57-10.73-11.4-7.59-4.04 1.86-7.99 3.9-12.01 5.35-36.52 13.21-80.25 12.95-114.75-6.56-9.17-5.19-12.48 4.97-14.6 11.38-4.06 12.27-3.12 27.2.45 39.51.72 2.5 2.88 5.51 6.48 9.03l-.42 7.35c.427 1.907.587 3.193.48 3.86-.927 5.66-1.907 11.32-2.94 16.98-2.42 13.153-7.49 24.717-15.21 34.69-15.7 20.28-39.36 36.19-62.5 47.51-21.007 10.273-42.36 18.943-64.06 26.01-7.44 2.127-14.62 4.123-21.54 5.99-16.16 4.367-32.527 7.74-49.1 10.12-1.007.147-2.007.333-3 .56-1.213.28-2.203.47-2.97.57-34.93 4.69-68.32 5.71-103.47 2.65-13.787-1.2-24.96-2.66-33.52-4.38-9.087-1.827-18.18-3.617-27.28-5.37-8.267-1.593-20.577-4.977-36.93-10.15-7.807-2.473-21.653-7.937-41.54-16.39-12.173-5.173-26.57-12.86-43.19-23.06-10.24-6.293-20.363-14.187-30.37-23.68-21.18-20.1-30.47-47.34-23.67-76.04 3.47-14.65 6.47-26.38 11.67-37.8 2.34-5.13 4.03-11.16 4.69-15.92 1.367-9.833 1.947-19.22 1.74-28.16-.247-10.727-1.033-22.427-2.36-35.1 6.48-3.17 12.4-6.18 18.65-10.25 16.57-10.79 32.72-20.43 47.87-36.05 2.113-2.18 4.38-4.283 6.8-6.31 2.57 7.11 5.49 9.83 12.25 12.5 3.32 1.313 6.633 2.193 9.94 2.64.46 2.26.85 4.023 1.17 5.29 1.8 7.18 13.49 9.97 19.81 10.89 18.05 2.61 35.99.68 54-.96 15.64-1.42 31.16-5.07 46.25-9.33 11.847-3.347 25.347-9.067 40.5-17.16 1.587-.853 3.5-2.21 5.74-4.07l2.11 4.04c-1.093 6.12 1.117 10.12 6.63 12 4.873 1.66 9.627 1.977 14.26.95 12.72-2.82 25.16-10.19 35.8-17.49 11.98-8.23 23.78-19.79 32.46-31.44.4-.533.79-1.293 1.17-2.28.407-1.047.893-1.773 1.46-2.18Zm65.43 127.67c-1.4-10.38-4.44-20.55-10.68-29.11-7.76-10.65-21.76-13.65-32.68-5.86-11.67 8.31-16.57 27.67-17.77 41.21-.94 10.527-1 21.047-.18 31.56.99 12.67 3.88 24.4 12.89 33.88 4.78 5.02 14.33 7.7 20.99 6.62 5.81-.95 10.76-3.32 14.66-7.75 1.82-2.07 3.76-3.24 4.99-5.79 3.3-6.81 6.55-13.62 7.82-21 2.43-14.15 1.86-29.58-.04-43.76Zm-294.44 37.62c1.29-20.6.8-62.65-20.88-74.03-6.367-3.34-12.87-3.603-19.51-.79-3.733 1.587-7.033 4.2-9.9 7.84-11.57 14.69-12.57 36.81-12.61 54.61-.03 12.75 1.71 27.75 8.67 38.79 1.45 2.31 3.53 4.04 5.49 6 1.61 1.62 2.65 3.69 5.36 4.71 3.16 1.21 6.72 2.76 9.86 3.21 6.83.98 13.97-.7 19.28-5.22 4.49-3.82 6.43-9.34 9.05-14.28 3.68-6.95 4.71-13.1 5.19-20.84Zm69.78 33.4c1.547 1.687 3.183 3.577 4.91 5.67 2.727 3.3 5.98 4.957 9.76 4.97 2.333 1.653 4.627 2.073 6.88 1.26.573-.213 1.907-.837 4-1.87.156-.078.328-.12.501-.124.173-.003.343.032.499.104 1.713.753 2.79.947 3.23.58 8.05 1.55 13.81-1.95 17.55-8.58 2.67-.25 4.57-2.14 6.69-3.02 2.04-.85 4.1-1.63 5.55-3.35 3.693-4.38 4.693-8.993 3-13.84-5.63-16.11-32.41-15.88-45.47-13.63-11.25 1.93-27.01 4.84-26.91 19.06.047 6.78 3.317 11.037 9.81 12.77Zm-119.15 1.83c-6.85-8.08-24.06-9.44-33.76-7.79-13.713 2.333-22.453 10.147-26.22 23.44-1.98 7.01.45 15.19 3.67 21.45 5.95 11.56 22.06 17.61 34.17 19.27 14.54 1.99 35.03-2.73 40.35-18.73 2.127-6.38 1.897-12.67-.69-18.87-2.413-5.793-5.393-10.2-8.94-13.22-1.14-.98-4.51-1.55-6.15-3.29-.76-.81-1.74-1.45-2.43-2.26Zm338.63-2.47c-4.093 1.453-8.593 4.633-13.5 9.54-11.44 11.45-15.17 31.15-1.05 42.21 16.92 13.26 44.01 9.23 60.47-1.11 5.54-3.48 11.9-10.58 13.8-17.01 2.53-8.56.98-18.28-4.3-25.38-8.64-11.64-25.51-15.28-39.07-13.4-5.39.75-10.96 3.23-16.35 5.15Zm-185.35 60.6c-1.76-.92-3.523-.9-5.29.06-9.19 5.02-17.84 7.45-29 5.17-5.77-1.17-10.29-6.85-13.58-11.34-1.087-1.48-2.593-1.827-4.52-1.04-.273.113-.487.3-.64.56-2.64 4.6 2.39 11.43 5.88 14.22 11.25 9.01 28.16 8.61 40.52 2.61 2.06-1 3.89-1.32 5.86-.44 11.99 5.38 24.65 7.93 37.31 4.66 8.45-2.17 13.56-6 18.15-13.22 2.05-3.24 2.8-7.66-2.52-7.98-.167-.009-.334.016-.491.075-.156.058-.299.149-.419.265-1.73 1.7-2.93 4.15-4.37 5.59-8.74 8.74-24.01 9.66-35.16 6.99-4.77-1.14-7.57-4.01-11.73-6.18Z" fill="#FFEF7C"/><path d="M250.75 586.1c-6.85-8.08-24.06-9.44-33.76-7.79-13.713 2.333-22.453 10.147-26.22 23.44-1.98 7.01.45 15.19 3.67 21.45 5.95 11.56 22.06 17.61 34.17 19.27 14.54 1.99 35.03-2.73 40.35-18.73 2.127-6.38 1.897-12.67-.69-18.87-2.413-5.793-5.393-10.2-8.94-13.22-1.14-.98-4.51-1.55-6.15-3.29-.76-.81-1.74-1.45-2.43-2.26Z" fill="#FFBD9F"/><path d="M559.47 400.47c-3.82 3.75-9.08 2.63-11.77-1.71-1.487-2.393-2.51-5.01-3.07-7.85 5.393 2.633 10.34 5.82 14.84 9.56Z" fill="#FFAA3C"/><path d="M245.58 422.18c-2.42 2.027-4.687 4.13-6.8 6.31-15.15 15.62-31.3 25.26-47.87 36.05-6.25 4.07-12.17 7.08-18.65 10.25-.553-3.78-.99-7.627-1.31-11.54-.187-2.247-1.15-4.767-2.89-7.56 1.58.313 3.35.037 5.31-.83 5.23-2.31 10.43-4.33 15.21-7.44 3.187-2.067 6.343-4.17 9.47-6.31 2.94-2.01 5.62-4.55 8.49-6.84 2.49-1.99 5.51-4.81 7.98-7.18 8.533-8.18 16.54-16.853 24.02-26.02.913-1.113 1.667-2.143 2.26-3.09.48-.78.793-.717.94.19l3.84 24.01Zm189.66-.2c-2.24 1.86-4.153 3.217-5.74 4.07-15.153 8.093-28.653 13.813-40.5 17.16-15.09 4.26-30.61 7.91-46.25 9.33-18.01 1.64-35.95 3.57-54 .96-6.32-.92-18.01-3.71-19.81-10.89-.32-1.267-.71-3.03-1.17-5.29 21.853 2.507 42.077 2.343 60.67-.49 16.72-2.54 28.143-4.597 34.27-6.17 23.86-6.13 40.5-11.81 58.82-21.9 4.84-2.667 9.677-5.343 14.51-8.03.36-.2.543-.093.55.32.04 2.067-.11 3.91-.45 5.53-1.14 5.347-1.44 10.48-.9 15.4Z" fill="#FF9C3A"/><path d="M116.76 465.9c.193 2.42.84 5.2 1.94 8.34 6.433 18.32 15.763 34.677 27.99 49.07 4.14 4.87 10.26 3.86 12.14 11.39l-1 4.48c-3.747 1.38-7.353 2.69-10.82 3.93-5.98 2.13-12.26 3.19-18.51 4.58-12.02 2.67-27.66 2.14-41.63-.01-14.11-2.16-24.59-6.16-38.07-12.33-2.43-1.12-5.51-1.89-7.8-1.31-3.79.97-6.01 6.57-5.93 9.87-8.93-7.66-14.33-16.77-18.86-27.57-.83-4.61-2.29-9.63-2.46-13.85-.2733-6.727 1.2367-12.237 4.53-16.53l3.75-.06c.1579-.007.3116-.048.45-.12 5.5-3 11.02-5.95 16.56-8.85 4.22-2.2 9.2-5.33 14-7.7 8.63-4.25 14.51-7.6 21.67-11.83 1.7333-1.02 3.3833-2.193 4.95-3.52 1.4867-1.26 3.0433-2.577 4.67-3.95l19.53-9.34c.068-.03.142-.045.216-.043.075.002.147.02.213.054.065.034.122.082.166.14.043.059.072.127.085.199 1.97 10.76 3.2 18.14 12.22 24.96Z" fill="#FFEF7C"/><path d="M84.33 449.93c-1.6266 1.373-3.1833 2.69-4.67 3.95-1.5666 1.327-3.2166 2.5-4.95 3.52-7.16 4.23-13.04 7.58-21.67 11.83-4.8 2.37-9.78 5.5-14 7.7-5.54 2.9-11.06 5.85-16.56 8.85-.1383.072-.292.113-.45.12l-3.75.06c5.7334-5.4 11.7167-9.753 17.95-13.06 2.79-1.49 5.55-3.62 8.72-5.22 13.46-6.827 26.5867-12.743 39.38-17.75Z" fill="#FFAA3C"/><path d="M168.06 455.69c-.233-1.013-1.017-1.503-2.35-1.47-2.87.3-7.36 1.73-8.8 4.52.907 9.84 1.867 19.677 2.88 29.51 1.6 15.62 1.28 31.103-.96 46.45l-1 4.48c-1.58 7.073-3.59 13.94-6.03 20.6-5.94 16.19-10.14 30.09-11.85 47.06.68 4.727-.457 7.267-3.41 7.62-1.113.9-1.187 2.337-.22 4.31.015.033.038.061.067.08.028.02.06.03.093.03h.27c.107 0 .18.047.22.14 1.11 2.61 2.82 3.77 2.59 7.24.807.567 1.253 1.137 1.34 1.71 4.47 30.81 27 54.39 50.81 72.17 2.193 1.64 4.733 3.327 7.62 5.06 6.55 3.93 13.41 8.15 19.74 11.48 29.66 15.63 61.48 28.14 94.06 36.14 4.27 1.05 10.43 1.97 15.58 3.48.128.036 17.431 3.631 17.53 3.72 3.7.31 8.25 1.53 11.35 2.06 5.82 1 11.523 1.9 17.11 2.7.216.41 11.815 1.223 15.335 1.349-.049-.281.283-.28.995.001 1.293.513 2.783.837 4.47.97 36.26 2.78 125.28-6.2 125.28-6.2.066-.146.165-.275.289-.378.125-.102.273-.175.431-.212l34.5-7.81c1.113-.401 12.792-4.586 15.64-4.539-.292-.205-.647-.528-.943-.806-.26-.073-.459-.242-.597-.505-.072-.139.214.146.597.505.132.038.281.051.445.039l.018-.014c.113-.087.27-.113.47-.08-.176.052-.338.083-.488.094-.194.153-.168.272.078.356.507.187.833.37.98.55.69-1.5-.11-5.41.53-6.68 1.987-3.967 2.11-7.457.37-10.47-7.44 2.127-14.62 4.123-21.54 5.99-16.16 4.367-32.527 7.74-49.1 10.12-1.007.147-2.007.333-3 .56-1.213.28-2.203.47-2.97.57-34.93 4.69-68.32 5.71-103.47 2.65-13.787-1.2-24.96-2.66-33.52-4.38-9.087-1.827-18.18-3.617-27.28-5.37-8.267-1.593-20.577-4.977-36.93-10.15-7.807-2.473-21.653-7.937-41.54-16.39-12.173-5.173-26.57-12.86-43.19-23.06-10.24-6.293-20.363-14.187-30.37-23.68-21.18-20.1-30.47-47.34-23.67-76.04 3.47-14.65 6.47-26.38 11.67-37.8 2.34-5.13 4.03-11.16 4.69-15.92 1.367-9.833 1.947-19.22 1.74-28.16-.247-10.727-1.033-22.427-2.36-35.1-.553-3.78-.99-7.627-1.31-11.54-.187-2.247-1.15-4.767-2.89-7.56Z" fill="#B1304B"/><path d="M156.91 458.74c.907 9.84 1.867 19.677 2.88 29.51 1.6 15.62 1.28 31.103-.96 46.45-1.88-7.53-8-6.52-12.14-11.39-12.227-14.393-21.557-30.75-27.99-49.07-1.1-3.14-1.747-5.92-1.94-8.34 2.49.09 10.21-2.34 8.14-6.47 4.027 4.24 8.387 6.113 13.08 5.62 4.787-.507 10.707-2.19 17.76-5.05.407-.167.797-.587 1.17-1.26Z" fill="#FF9C3A"/><path d="M583.88 484.14c6.24 8.56 9.28 18.73 10.68 29.11 1.9 14.18 2.47 29.61.04 43.76-1.27 7.38-4.52 14.19-7.82 21-1.23 2.55-3.17 3.72-4.99 5.79-3.9 4.43-8.85 6.8-14.66 7.75-6.66 1.08-16.21-1.6-20.99-6.62-9.01-9.48-11.9-21.21-12.89-33.88-.82-10.513-.76-21.033.18-31.56 1.2-13.54 6.1-32.9 17.77-41.21 10.92-7.79 24.92-4.79 32.68 5.86Zm-283.76 66.73c-.48 7.74-1.51 13.89-5.19 20.84-2.62 4.94-4.56 10.46-9.05 14.28-5.31 4.52-12.45 6.2-19.28 5.22-3.14-.45-6.7-2-9.86-3.21-2.71-1.02-3.75-3.09-5.36-4.71-1.96-1.96-4.04-3.69-5.49-6-6.96-11.04-8.7-26.04-8.67-38.79.04-17.8 1.04-39.92 12.61-54.61 2.867-3.64 6.167-6.253 9.9-7.84 6.64-2.813 13.143-2.55 19.51.79 21.68 11.38 22.17 53.43 20.88 74.03Z" fill="#9D2B5A"/><path d="M885.91 506.9c-.22 10.05-2.59 16.41-6.58 27.47-4.16 11.57-9.86 19.85-17.95 30.49-15.66 20.56-35.5 33.79-59.44 41.98-6.98 2.39-16.11 4.65-23.63 5.22-9.74.74-23.03 1.11-32.82-.95-7.893-1.66-15.543-4.073-22.95-7.24-.647-.28-1.437-.757-2.37-1.43-1.44-1.033-2.387-1.213-2.84-.54l.42-7.35c3.633 2.82 6.793 4.737 9.48 5.75 5.127 1.927 12.003 3.8 20.63 5.62 9.913 2.1 19.863 2.573 29.85 1.42 11.16-1.28 20.66-5.26 32.8-11.34 16.34-8.18 31.68-22.19 42.95-36.03 3.947-4.84 7.32-10.353 10.12-16.54 3.553-3.807 6.673-7.887 9.36-12.24 3.173-5.14 6.19-10.373 9.05-15.7 2.047-3.807 3.353-6.67 3.92-8.59Z" fill="#FFE031"/><path d="M16.21 516.34c4.53 10.8 9.93 19.91 18.86 27.57 5.22 12.83 14.11 25.98 24.33 35.35 1.6067 1.473 3.53 3.33 5.77 5.57 15.94 15.9 41.4 25.24 63 23.2 3.907-.373 7.833-.77 11.78-1.19.68 4.727-.457 7.267-3.41 7.62-15.03 1.54-29.92-.16-44.1-5.31-17.43-6.32-33.19-18.92-45.34-32.5-11.51-12.87-20.82-26.74-27.25-43.01-1.3733-3.48-2.3933-7.063-3.06-10.75-.06-.32-.0367-.633.07-.94.1-.273.11-.507.03-.7-.6733-1.627-.9-3.263-.68-4.91Z" fill="#FF9C3A"/><path d="M863.58 543.43c-2.8 6.187-6.173 11.7-10.12 16.54-11.27 13.84-26.61 27.85-42.95 36.03-12.14 6.08-21.64 10.06-32.8 11.34-9.987 1.153-19.937.68-29.85-1.42-8.627-1.82-15.503-3.693-20.63-5.62-2.687-1.013-5.847-2.93-9.48-5.75-3.6-3.52-5.76-6.53-6.48-9.03-3.57-12.31-4.51-27.24-.45-39.51 2.12-6.41 5.43-16.57 14.6-11.38 34.5 19.51 78.23 19.77 114.75 6.56 4.02-1.45 7.97-3.49 12.01-5.35 6.83-3.14 9.9 2.06 11.4 7.59Zm-705.75-4.25c-1.58 7.073-3.59 13.94-6.03 20.6-5.94 16.19-10.14 30.09-11.85 47.06-3.947.42-7.873.817-11.78 1.19-21.6 2.04-47.06-7.3-63-23.2-2.24-2.24-4.1633-4.097-5.77-5.57-10.22-9.37-19.11-22.52-24.33-35.35-.08-3.3 2.14-8.9 5.93-9.87 2.29-.58 5.37.19 7.8 1.31 13.48 6.17 23.96 10.17 38.07 12.33 13.97 2.15 29.61 2.68 41.63.01 6.25-1.39 12.53-2.45 18.51-4.58 3.467-1.24 7.073-2.55 10.82-3.93Z" fill="#FF7976"/><path d="M417.23 586.28c.5-2.11 1.43-4.58 1.03-6.57-.467-2.253-1.93-3.373-4.39-3.36-3.847.02-7.2 1.913-10.06 5.68-3.313 4.373-4.69 8.65-4.13 12.83-.44.367-1.517.173-3.23-.58-.156-.072-.326-.107-.499-.104-.173.004-.345.046-.501.124-2.093 1.033-3.427 1.657-4 1.87-2.253.813-4.547.393-6.88-1.26 3.9-.78 4.37-3.87 2.85-7.12-2.46-5.26-6.6-10.47-12.36-12.36-3.66-1.2-7.73.56-6.05 5.06.42 1.113.717 2.373.89 3.78-6.493-1.733-9.763-5.99-9.81-12.77-.1-14.22 15.66-17.13 26.91-19.06 13.06-2.25 39.84-2.48 45.47 13.63 1.693 4.847.693 9.46-3 13.84-1.45 1.72-3.51 2.5-5.55 3.35-2.12.88-4.02 2.77-6.69 3.02Z" fill="#FFAA3C"/><path d="M384.57 594.91c-3.78-.013-7.033-1.67-9.76-4.97-1.727-2.093-3.363-3.983-4.91-5.67-.173-1.407-.47-2.667-.89-3.78-1.68-4.5 2.39-6.26 6.05-5.06 5.76 1.89 9.9 7.1 12.36 12.36 1.52 3.25 1.05 6.34-2.85 7.12Zm32.66-8.63c-3.74 6.63-9.5 10.13-17.55 8.58-.56-4.18.817-8.457 4.13-12.83 2.86-3.767 6.213-5.66 10.06-5.68 2.46-.013 3.923 1.107 4.39 3.36.4 1.99-.53 4.46-1.03 6.57Z" fill="#BA3745"/><path d="M605.73 578.48c-5.39.75-10.96 3.23-16.35 5.15-4.093 1.453-8.593 4.633-13.5 9.54-11.44 11.45-15.17 31.15-1.05 42.21 16.92 13.26 44.01 9.23 60.47-1.11 5.54-3.48 11.9-10.58 13.8-17.01 2.53-8.56.98-18.28-4.3-25.38-8.64-11.64-25.51-15.28-39.07-13.4Z" fill="#FFBD9F"/><path d="M404.03 644.23c4.16 2.17 6.96 5.04 11.73 6.18 11.15 2.67 26.42 1.75 35.16-6.99 1.44-1.44 2.64-3.89 4.37-5.59.12-.116.263-.207.419-.265.157-.059.324-.084.491-.075 5.32.32 4.57 4.74 2.52 7.98-4.59 7.22-9.7 11.05-18.15 13.22-12.66 3.27-25.32.72-37.31-4.66-1.97-.88-3.8-.56-5.86.44-12.36 6-29.27 6.4-40.52-2.61-3.49-2.79-8.52-9.62-5.88-14.22.153-.26.367-.447.64-.56 1.927-.787 3.433-.44 4.52 1.04 3.29 4.49 7.81 10.17 13.58 11.34 11.16 2.28 19.81-.15 29-5.17 1.767-.96 3.53-.98 5.29-.06Z" fill="#B1304B"/></g><defs><clipPath id="a"><path fill="#fff" d="M0 0h901v768H0z"/></clipPath></defs></svg>